<svg width="18" height="15" viewBox="0 0 18 15" fill="none" xmlns="http://www.w3.org/2000/svg">
<path d="M17.88 1.72C17.39 2.45 16.77 3.1 16.05 3.62C16.06 3.77 16.06 3.93 16.06 4.09C16.06 8.94 12.37 14.53 5.63 14.53C3.56 14.53 1.63 13.92 0 12.88C0.29 12.91 0.58 12.93 0.88 12.93C2.6 12.93 4.18 12.34 5.43 11.36C4.66534 11.3442 3.92472 11.0899 3.31158 10.6328C2.69843 10.1756 2.24339 9.53834 2.01 8.81C2.23 8.85 2.46 8.88 2.7 8.88C3.03 8.88 3.36 8.83 3.66 8.75C2.8306 8.57974 2.08528 8.12869 1.54972 7.4729C1.01416 6.8171 0.721111 5.99669 0.72 5.15V5.11C1.22 5.38 1.78 5.55 2.38 5.57C1.8778 5.23314 1.46636 4.7777 1.18206 4.24399C0.897758 3.71027 0.749363 3.11471 0.75 2.51C0.75 1.84 0.93 1.21 1.25 0.67C3.06 2.89 5.76 4.35 8.81 4.5C8.75 4.23 8.71 3.95 8.71 3.66C8.71265 2.68839 9.10047 1.75748 9.78845 1.07138C10.4764 0.385283 11.4084 -3.60686e-06 12.38 0C13.44 0 14.39 0.44 15.06 1.16C15.89 0.99 16.68 0.69 17.39 0.27C17.11 1.12 16.53 1.84 15.77 2.29C16.4986 2.21036 17.2104 2.01807 17.88 1.72Z" fill="white"/>
</svg>
